<svg xmlns="http://www.w3.org/2000/svg" viewBox="0 0 62.79 85.53"><defs><style>.cls-1{fill:#392d24;}.cls-2{fill:#3d3228;}.cls-3{fill:#f7edca;}.cls-4{fill:#d28025;}.cls-5{fill:#fff;}.cls-6{fill:#f4ecc9;}.cls-7{fill:#da942f;}.cls-8{fill:#f1ebcb;}.cls-9{fill:#393029;}.cls-10{fill:#f5ecca;}.cls-11{fill:#d7ceaa;}.cls-12{fill:#f0eac7;}.cls-13{fill:#d1c5a3;}.cls-14{fill:#d2c4ac;}.cls-15{fill:#beb49e;}.cls-16{fill:#c1b590;}.cls-17{fill:#c4b9a5;}.cls-18{fill:#cf8e2c;}.cls-19{fill:#d5cab1;}.cls-20{fill:#cc8d2f;}.cls-21{fill:#cfcbb0;}.cls-22{fill:#cec8ab;}.cls-23{fill:#cabe9b;}.cls-24{fill:#c5baa4;}.cls-25{fill:#aa9e88;}.cls-26{fill:#cbc29b;}.cls-27{fill:#eee5cf;}.cls-28{fill:#4e4533;}.cls-29{fill:#524b38;}.cls-30{fill:#5a513e;}.cls-31{fill:#514a37;}.cls-32{fill:#59533e;}.cls-33{fill:#685e4a;}.cls-34{fill:#48412f;}.cls-35{fill:#615a46;}.cls-36{fill:#c7bb93;}.cls-37{fill:#c3ba90;}.cls-38{fill:#db962f;}.cls-39{fill:#8e5920;}.cls-40{fill:#eee5c3;}.cls-41{fill:#ddd3b0;}.cls-42{fill:#dfd3b3;}.cls-43{fill:#bbb39b;}.cls-44{fill:#a7631c;}.cls-45{fill:#bcb59f;}.cls-46{fill:#d5c6a0;}.cls-47{fill:#d1cdb2;}.cls-48{fill:#c1b9a4;}.cls-49{fill:#b1a691;}.cls-50{fill:#e4d8c2;}.cls-51{fill:#3c302d;}.cls-52{fill:#b2661a;}.cls-53{fill:#43372a;}.cls-54{fill:#3e332a;}.cls-55{fill:#392f23;}.cls-56{fill:#514b34;}.cls-57{fill:#413728;}.cls-58{fill:#6a644f;}.cls-59{fill:#ecca8b;}.cls-60{fill:#eed487;}.cls-61{fill:#f0d5a0;}.cls-62{fill:#43352b;}.cls-63{fill:#b9a77c;}.cls-64{fill:#41342a;}.cls-65{fill:#b5a77a;}.cls-66{fill:#493f31;}.cls-67{fill:#b3ab7f;}.cls-68{fill:#473b2d;}.cls-69{fill:#b7ab81;}.cls-70{fill:#af7720;}.cls-71{fill:#b1761f;}.cls-72{fill:#b37520;}.cls-73{fill:#d38e1f;}.cls-74{fill:#d3911f;}.cls-75{fill:#42342b;}.cls-76{fill:#533c25;}.cls-77{fill:#3e3229;}.cls-78{fill:#d7902c;}.cls-79{fill:#d78b2d;}.cls-80{fill:#d0861e;}</style></defs><title>cerveja</title><g id="Camada_2" data-name="Camada 2"><g id="Camada_1-2" data-name="Camada 1"><path class="cls-1" d="M59.59,23.23c2.23-.49,2.74-2.32,3.11-4.16a4,4,0,0,0-2.07-4.35c-1.12-.69-1.8-1-.81-2.54,1.12-1.7.2-3.69-1.73-4.58-.71-.32-1.44-.36-1.71-1.45C54.76-.56,46.73-1.26,42.84,1.57c-1,.74-1.93,1.25-3.13.38a2.29,2.29,0,0,0-2.36-.21c-1.49.85-2.41.31-3.68-.58a5.85,5.85,0,0,0-9.13,3.06c-.28,1-.82,1-1.59,1.1-3.68.37-4.77,1.55-4.38,5.17.12,1.06-.43,1.14-1,1.37a4.36,4.36,0,0,0-3,4.93c.29,2.36,1.08,4.44,3.68,5,1.07.24,1,.73,1,1.53a21.4,21.4,0,0,1-1.76,8,3.25,3.25,0,0,1-3,2.27c-1.71.08-3.43.12-5.14.14a7.36,7.36,0,0,0-7.54,5.53A44.14,44.14,0,0,0,1.78,64.4c1.24,4.32,3.85,5.91,8.37,5.93l2.68,0c3.64,0,5.43,1.51,5.48,5.21.06,5,1,7.63,7.68,8.82a72.46,72.46,0,0,0,27.34-.22C58.54,83.06,59.9,81.2,60,76c.42-15.37,0-30.73-.68-46.09a17.82,17.82,0,0,0-.22-1.77c-1-.12-1.38.58-1.39,1.31,0,2.1-.87,4.15-.44,6.28.65,2.34,0,4.76.44,7.12.57,1.92.2,3.9.3,5.85v2.76c0,7.84,0,15.67,0,23.5,0,4.94-1,6.53-5.91,7.38a63.57,63.57,0,0,1-17.54.89A66.54,66.54,0,0,1,24.87,82a5.32,5.32,0,0,1-4.2-3.56c-.79-3.6-.29-7.26-.3-10.88q0-10.8,0-21.62a5.52,5.52,0,0,1,.23-2,9,9,0,0,0,.19-2.48c.11-3.51-.3-7,.26-10.53.46-2.46-.05-5,.56-7.43-.44,5.51-.34,11-.3,16.54-.18,7.2.76,14.38.47,21.58a3.77,3.77,0,0,0,0,.89c.11.56.12,1.38.83,1.33s.71-.85.76-1.43c.09-1,0-1.94.06-2.9-.25-9.41.76-18.8.45-28.21a4.22,4.22,0,0,1,.2-1.53,12.72,12.72,0,0,0,.22-3.08,3.67,3.67,0,0,1,.39-2.28c1.62-1.17,3.51-1.05,5.36-1.09a8,8,0,0,0,1.76-.17,11,11,0,0,1,5.94.25,4.1,4.1,0,0,0,3.26,0c.9-.56,2,.06,2.9-.52a1.25,1.25,0,0,0,.26-.93c-.64-1.36-2.14-2-2.82-3.36-.39-.77-.81-.05-1,.41s-.11,1.38-.88,1.38-1.09-.9-1.45-1.53a4,4,0,0,1-.3-.84c-.36-1.25-.91-1.33-1.87-.46C33,20.12,32,20.06,29.19,17.28c-1.48-1.47-1.56-1.45-2.56.5-.81,1.61-1.36,1.8-2.64.52-1.08-1.09-1.9-1.33-2.81.07a2.52,2.52,0,0,1-3.57.67c-2-2.56-1.33-4.72,1.76-5.49,1.48-.38,2-.75,1.33-2.38-1-2.54-.09-3.92,2.61-4,1.78,0,2.9-.24,3-2.49.08-2,2.66-3.27,4.85-2.67a6.67,6.67,0,0,1,3.71,2.72c.6.84,1.28,1.71,2,0s1.93-1.19,3-.54a2.18,2.18,0,0,0,3.12-.34c4.29-4,11.34-1.82,12,3.65.13,1.05.76,1.41,1.75,1.68,1.79.51,2,1.5.75,3-1.64,1.93-1.63,2.06.57,3.11C59.57,16,60.9,17,60.6,19s-1.58,2.76-3.48,2.8c-.57,0-1.36,0-1.52.67s.6.88,1.12,1.13C57.73,23.88,58.64,23.42,59.59,23.23Z"/><path class="cls-2" d="M59.59,23.23c-1-.75-1.93.27-2.9,0a2.36,2.36,0,0,0-.91,2.16q-.12,9,0,18a2.76,2.76,0,0,0,.42,1.48c1.42.5,1.18-.73,1.23-1.34a26.57,26.57,0,0,0,0-6.24,61.55,61.55,0,0,1-.33-6.58c.26,1.76-.38,3.64.34,5.45.35.06.48-.07.38-.41l.45-6.54a1.38,1.38,0,0,1,.89-1.16C59.58,26.51,58.62,24.78,59.59,23.23Z"/><path class="cls-3" d="M56.44,45.12q.08-9.48.14-19c0-1,.07-1.93.11-2.9l-1.06-.76c3.71-.2,5-.9,5.53-3,.86-3.87-2.45-4.28-5-5.47a18.42,18.42,0,0,0,2-1.63c.6-.65,1.14-1.37.63-2.39a2,2,0,0,0-2.12-1.31c-.86.1-1.18.07-1.31-1C55,4.11,53.05,2.13,49.68,1.38a7.89,7.89,0,0,0-8.23,3.44A3.82,3.82,0,0,0,37.28,3.1c-1.22.28-.94,1.33-1.15,2.39C34,2.54,31.66.13,27.73,1.91c-2,.91-2.5,2.58-2,4.72-1.9.22-4.11-.8-5.51.93s-.44,3.51.59,5.14c-2.19,0-4.09.59-4.8,2.86a3.24,3.24,0,0,0,1.37,4.07c1.43.06,2.68-.72,4.06-.93.57-.75,1-2,1.92-.15a2.19,2.19,0,0,0,2.18,1.31c1-.14,1.24-1.15,1.6-2,.19-.44-.07-1.05.49-1.37C32.19,21,34,21.12,37,17c.24,1.16.23,2.25,1,3.1.51.53.81,1.39,1.67,1.23s1-1,1-1.77a2.16,2.16,0,0,1,.25-.89,5.12,5.12,0,0,0,2.91,3.2c1.86-.19,3.91.63,5.41-1.4.58-.79,1.88.11,1.88,1.44,0,2.52.15,5,.16,7.55,0,4.45,0,8.9,0,13.36,0,3.12,1,3.9,4.1,3.68C56.07,46.21,56.61,45.92,56.44,45.12Z"/><path class="cls-2" d="M55.53,46c-3.22.14-3.72-.34-3.73-3.66,0-6.55-.33-13.11.07-19.63.15-2.47-1.17-2.83-2.74-3.84a2.16,2.16,0,0,1-1.5,2.29A2.08,2.08,0,0,1,45.31,21c-1.46-1.22-.29,1.67-1.41.87l0,1c.53,1.16,1.52.81,2.42.76,1.06-.16,2.06-.87,3.38-.35-.75,1.46-2.65,2.06-2.74,3.86-.27,2.91.21,5.79.25,8.68.14,9.52.12,19,0,28.56,0,2.67-.56,5.33-.37,8,.17,2.43.91,3.36,3.26,4.17a6,6,0,0,0,2.52-.38,6.7,6.7,0,0,1-1.2.52c-7.42,1.73-14.88,1.45-22.34.44a7.65,7.65,0,0,1-3.9-1.51c-.21-.53.21-1,.18-1.48a1.45,1.45,0,0,0-.22-.6c-1-.78-.76-2-1.1-3-.21-2.9,0-5.8-.11-8.7,0-.91.22-2-1-2.46v4.12h-.56c.39-8-.49-15.89-.47-23.84-1.33.62-1,1.87-1,2.9,0,2.95.05,5.9,0,8.85-.05,4.83,0,9.66,0,14.49.22,2.67-.14,5.36.51,8a6.8,6.8,0,0,0,.91,2.48,9.07,9.07,0,0,0,3.28,2.33,11.41,11.41,0,0,0,3.87,1.12,58.92,58.92,0,0,0,20.77-.14,10.41,10.41,0,0,0,4.3-1.74c2.65-1.51,2.64-4.22,3-6.75a26.52,26.52,0,0,0,.07-3.09c0-6.29,0-12.58,0-18.87a7.36,7.36,0,0,0-.23-2.64c-.59-1-1.05-.54-1.23.24a7.79,7.79,0,0,1-.87,2.39c-.17,3.5,0,7-.08,10.49a43.88,43.88,0,0,1-.12,5c-.7,2.51-.07,5.1-.43,7.64,0,.29-.21.1-.16,0,.43-.56.2-1.25.26-1.9.09-1.79-.21-3.59.21-5.36s.16-3.49.24-5.23c0-3.85-.07-7.7.06-11.54C54.87,47.5,55.5,46.82,55.53,46Z"/><path class="cls-4" d="M51.27,76c-3.06-.06-4-.85-3.82-3.84.61-12,.59-24.1.35-36.16-.07-3.19-.16-6.39-.24-9.59.15-.63.36-1.26.49-1.9.25-1.25-.17-1.86-1.53-1.38-.89,0-1.81.24-2.66-.27-.93.15-1.71-1.15-2.71-.26-.36,1.35-1.48,1-2.39,1-1.12.09-1.12.09-1.4,1.13a4.48,4.48,0,0,0,2.39.43c3.45.08,3.92.56,3.92,4.1q0,15.78,0,31.55c0,3.58,0,7.16,0,10.74,0,2.65-.69,3.29-3.3,3.34a9.89,9.89,0,0,0-3.75.32c-.11,1.14-.06,1.21,1.26,1.36s2.58-.24,3.46,1a20,20,0,0,0,9.64-.9A.86.86,0,0,0,51.27,76Z"/><path class="cls-5" d="M18.3,52.19c0-1.91.37-3.85-.39-5.73a6,6,0,0,0-7.55-3.29,2.83,2.83,0,0,0-1.72,2.39A30.53,30.53,0,0,0,8.38,57.3c.25,1.56.4,3.39,2.52,3.74,2.31.39,4.49.21,6.06-1.82a5.59,5.59,0,0,0,1.35-3.68C18.27,54.42,18.3,53.31,18.3,52.19Z"/><path class="cls-6" d="M1.87,46.5c-.16,5.38-.67,10.78.87,16.06.64.1.7-.36.8-.84.55.79.67,1.82,1.43,2.45,1.49,1.82,3.58,2.35,5.74,2.51s4.56.26,6.85.23c.89-.67.7-1.45.22-2.25-1.85-.81-3.81-.28-5.71-.43-3.3-.25-4.64-1.35-5.39-4.55a.4.4,0,0,1,0-.15l.22,0c.31-.12.49-.28.28-.62a37.34,37.34,0,0,1-.06-13.82c.4-5.17,5-7.43,9.29-4.54a1.49,1.49,0,0,0,1.36.17,3.74,3.74,0,0,0,0-3.43c-2.55-.5-5.08-1.21-7.73-1.09-.17,0,.07-.1.11-.15a2.48,2.48,0,0,0,.27-.35.63.63,0,0,0-.2-.62,3.11,3.11,0,0,0-1.76.1c-3.13.41-4.64,2.47-5.4,5.3a27.1,27.1,0,0,1-.33,3.82A100.37,100.37,0,0,0,3,56.23c-.51-3.34-.13-6.2-.34-9C2.52,46.81,2.37,46.46,1.87,46.5Z"/><path class="cls-7" d="M37.18,24.49c.82-.74,1.81-.37,2.71-.38,1.1,0,1.4-.54,1.26-1.51a3.07,3.07,0,0,1-3.31.11C36,21.77,34,22.43,32,22.55a6.08,6.08,0,0,0,.31,1.13,7.4,7.4,0,0,1,.2,2.65c0,9.22-.12,18.44.22,27.66.11,2.94.18,5.89.19,8,.21-3.1-.3-7-.23-10.88-.07-.82.19-1.69-.36-2.45a.54.54,0,0,0-.73.18c-.29,3.92.15,7.83,0,11.75a25.39,25.39,0,0,0,.29,5.26c-.5-2-.2-3.66-.3-5.24.1-5.49-.3-11-.07-16.45.05-1,.32-2.14-.9-2.74-.94.68-.79,1.71-.79,2.65,0,7.23,0,14.45,0,21.68,0,1.43.4,2.79.45,4.21.15,4.21.07,4.32-3.71,5.44-.29,1.2.7,1.22,1.39,1.47a19,19,0,0,0,4.54.85c2.18.24,4.4,0,6.59.45.71.15,1.83.46,2.17-.81.24-1,.1-1.43-1.11-1.41s-2.62.45-3.84-.33c-1.86-2.69-1.58-5.75-1.58-8.78q0-17.4,0-34.82C34.7,29.26,34.25,26.32,37.18,24.49Z"/><path class="cls-8" d="M57,68.44c-.11,1.45-.31,2.91-.32,4.37a5.48,5.48,0,0,1-2.41,4.67c-.06.37.2.53.47.68,1.38,1.23.57,2.1-.58,2.69a10.45,10.45,0,0,1-4,.91,22.63,22.63,0,0,1-5.51.32c-2.28,0-4.56,0-6.84,0-2.61-.12-5.23.17-7.84-.17a7,7,0,0,0-1.44-.21,11,11,0,0,1-3.54-.65C23,80.74,23.16,79.22,23,77.86a4.47,4.47,0,0,0-.11-1.46c-1.53-2.32-1.24-5-1.37-7.53,0-.89-.07-1.78-.1-2.67-.82.06-1,.75-.94,1.28.33,3.79-1.07,7.51-.38,11.3.47,2.36,2.32,3.18,4.3,3.7,6,1.59,12.25,1.61,18.43,1.4a47,47,0,0,0,10.63-1.22c3.89-1,5.05-2.45,5.14-6.43q.3-12.41,0-24.82a.48.48,0,0,0-.66.25c-.56,1.45-.22,3-.33,4.45.06,4.58-.16,9.17.18,13.74a26.22,26.22,0,0,1-.23,4.68,20.08,20.08,0,0,0,.2-4.58C57.74,69.35,58,68.55,57,68.44Z"/><path class="cls-9" d="M26.51,75.75c3.55.19,4.53-.68,4.32-4.28-.53-9.22-.57-18.45-.45-27.68,0-.74.09-1.48.14-2.22a1.67,1.67,0,0,0,.52-1.2c.12-4.17.13-8.34.48-12.49a3.71,3.71,0,0,0-1.18-3,7.49,7.49,0,0,0-6.24-.76c-.62.68-.27,1.51-.35,2.27a.76.76,0,0,0,.6.12c1.45-.74,2.82-.13,4.2.27a17.67,17.67,0,0,1,.05,8c-.22,2.46-.06,4.92-.12,7.37,0,5.3,0,10.59,0,15.88.07,2.74-.11,5.5.11,8.24.37,2.55.94,5.12-.27,7.61-1,.52-2.21-.54-3.21.32l-.87,1.09C24.93,75.71,25.62,76.18,26.51,75.75Z"/><path class="cls-10" d="M30,25a5.88,5.88,0,0,1,.93,4.21,102.22,102.22,0,0,0-.36,12.38l.81,16.55c0,.88.07,1.77.1,2.66.11.22.22.23.36,0l.11-12c.24-2.35.06-4.69.11-6.36.29,1.65-.27,4,.18,6.33l.08,2.15c.5,0,.63-.27.63-.68-.06-9.16.19-18.31-.14-27.47L32,22.55l-2,.22A1.69,1.69,0,0,0,30,25Z"/><path class="cls-11" d="M20.12,78.78,21.44,66.2V51.37c-.38-2.14-.07-4.29-.17-6.44,0-.74.07-1.63-1.17-1.17-.68,4.94-.29,9.91-.45,14.87q-.3,9,.13,18C19.81,77.36,19.61,78.13,20.12,78.78Z"/><path class="cls-12" d="M20.1,43.76c1.24.19.87,1.16.95,1.92.2,1.89-.39,3.84.39,5.69.29-3.91-.12-7.85.44-11.75-.2-5.41.32-10.8.47-16.21,0-.58.65-1.69-.49-1.8s-1.13.92-1.15,1.77c0,2.45-.1,4.89-.15,7.33-.4,2.81,0,5.62-.18,8.43a5.28,5.28,0,0,1-.21,2.4Z"/><path class="cls-13" d="M4.87,63.48c-.19-1.19-1.05-2.13-1-3.54-1.17.75-.26,2-1.09,2.63C3.5,67,5.76,69,10.15,68.9c2.69,0,5.35-.17,7.74,1.39.42-.47.16-.88-.1-1.29A4.92,4.92,0,0,0,15,67.73c-1.88-.43-3.79-.77-5.68-1.19A6.85,6.85,0,0,1,4.87,63.48Z"/><path class="cls-14" d="M22.91,59.34c.47,3.16.23,6.36.45,9.54a4.87,4.87,0,0,0,.29,2.39c1-.81.59-2.08,1.05-3.07.44-2-.27-4-.26-6,0-7.61-.12-15.22.11-22.83A69.76,69.76,0,0,1,24.36,32c0-.95.19-2-.7-2.71-.61,8.83-.62,17.66-.7,26.5C23,57,22.93,58.15,22.91,59.34Z"/><path class="cls-15" d="M10.23,35.34c0,.13,0,.25.07.37a6,6,0,0,0,4.57.66,2,2,0,0,1,2.52,1.08,2.56,2.56,0,0,1,.09,3.19c-.69.64-1.41.24-2.08,0a9.31,9.31,0,0,0-4.62-.42c-.85.31-1.83.49-1.8,1.72a11.16,11.16,0,0,1,9.28,1.51V33.5c-1.06.65-1.89,1.42-3,1.39C13.59,35.42,11.84,34.61,10.23,35.34Z"/><path class="cls-16" d="M9,41.93c.34-.77,1.13-.9,1.75-1.28a5.87,5.87,0,0,1,3.83-.3c.71.14,1.41.47,2-.2-1.77-2-4-1.52-6.1-1s-3.09,2.37-3.7,4.33a1.36,1.36,0,0,0,.36,1.62C8.13,44.27,7.74,42.63,9,41.93Z"/><path class="cls-17" d="M17.31,69.21a1,1,0,0,1,.58,1.08c1-.67.4-1.66.43-2.49.08-2.41,0-4.82,0-7.66a16.84,16.84,0,0,1-4.12,2.38.92.92,0,0,0,.59.68c.67.2,1.27-.33,1.95-.23.34.58.11,1.36.66,1.85a1.07,1.07,0,0,1,0,1.81A2.3,2.3,0,0,0,17.31,69.21Z"/><path class="cls-18" d="M30,25l0-2.21c-2,.16-4.2-.38-5.88,1.31C26,24.49,28.06,24.29,30,25Z"/><path class="cls-19" d="M58.24,51.41h.35V48.69c-.4-2,.13-4-.29-5.93-.09-2.33.34-4.69-.49-7a.51.51,0,0,1-.08.36c-.87,2.9-.13,5.88-.42,8.82C57.61,47.12,56.61,49.46,58.24,51.41Z"/><path class="cls-20" d="M24.12,21.8c2.13.33,4-.33,5.87-.4-1.4-1.84-1.42-1.88-3.25-.73C26,21.14,25,20.69,24.12,21.8Z"/><path class="cls-21" d="M23.66,29.28c.31,3.34-.24,6.7.3,10,.87-.35.85-1.17.86-1.87.06-3.61.11-7.23.06-10.84a.62.62,0,0,0-.66-.42l-.47.17Z"/><path class="cls-22" d="M3.14,44.21a4.48,4.48,0,0,0-.08-3.69,15.53,15.53,0,0,0-1.19,6l.46.55C3.5,46.36,2.51,45.05,3.14,44.21Z"/><path class="cls-11" d="M20.17,41.54c.89-3.58.32-7.21.39-10.83A66.46,66.46,0,0,0,20.17,41.54Z"/><path class="cls-23" d="M21.48,18.7c-1.65-1-2.74.48-4.06.93C19.05,20.54,20.43,20.36,21.48,18.7Z"/><path class="cls-24" d="M7.21,59l-.42.48C7,62.11,8,63.21,10.36,63.11a.49.49,0,0,0,0-.64C8.63,61.88,7.87,60.46,7.21,59Z"/><path class="cls-25" d="M10.23,35.34c1.65-.34,3.39.44,5-.45-2.24.26-4.54-.46-6.76.33Z"/><path class="cls-26" d="M58.29,42.76c.05,2-.44,4,.29,5.93A23.1,23.1,0,0,0,58.29,42.76Z"/><path class="cls-27" d="M10.34,62.47l0,.49a3.4,3.4,0,0,0,4.43,0l-.52-.41Z"/><path class="cls-1" d="M57.72,45V36.16c-.91-2.31,0-4.78-.83-7.12,0,4.59,0,9.18,0,13.77,0,.78.29,1.65-.44,2.31l-.91.92c.07.66-1.84.13-.81,1.36.44.34.29,1.08.9,1.31s.79.24.82-.45-.27-1.6.4-2.26l.28-.06A1.67,1.67,0,0,0,57.72,45Z"/><path class="cls-28" d="M21.91,10.12c1.22-.27,2.27-.43,1.69,1.47,2.32-2,2.32-2,5.43-1.59C27.52,8.36,24.47,8.3,21.91,10.12Z"/><path class="cls-29" d="M38.67,12a1.55,1.55,0,0,0,.09,1.65c.71-2.77,2.71-2.87,4.93-2.65a3.28,3.28,0,0,0-4.72.18C38.69,11.35,38.7,11.66,38.67,12Z"/><path class="cls-30" d="M30.55,8.39c1.13-1.9,2.52-2.88,5-2.16a2.61,2.61,0,0,0-3.33-.91A2.67,2.67,0,0,0,30.55,8.39Z"/><path class="cls-31" d="M53.81,15.54c-.11-1.43-.58-2.63-2.13-3-1.11-.26-2,.18-2.75,1.53,2.22-.92,3.76-.78,4.36,1.48A.41.41,0,0,0,53.81,15.54Z"/><path class="cls-32" d="M38.67,12l.3-.82c-2.17-1.37-2.95-1.26-4.15.72C36.14,12.08,37.53,10,38.67,12Z"/><path class="cls-33" d="M47.66,5.35c1.48-.36,2.22.46,2.76,1.76.43-1.21.2-2-.7-2.51S48.19,4.42,47.66,5.35Z"/><path class="cls-34" d="M53.81,15.54l-.52,0c-.48.32-1.06.53-1.21,1.34,1.16-.23,2.25-.77,3.68.07C55.3,15.68,54.63,15.5,53.81,15.54Z"/><path class="cls-35" d="M18.11,16.39a3,3,0,0,1,2.8-1.34,1.37,1.37,0,0,0-2-.74A1.43,1.43,0,0,0,18.11,16.39Z"/><path class="cls-36" d="M47,19.11a1,1,0,0,0-1.53.75c-.08.31.43.54.83.33s1.49.19,1.57-.77S47.22,19.25,47,19.11Z"/><path class="cls-37" d="M24.15,18.62a2.57,2.57,0,0,0,2.34-1.38C25.48,17.3,24.7,17.26,24.15,18.62Z"/><path class="cls-38" d="M24.22,26.18l.37.31c1.17.7,1.11,1.9,1.11,3q.07,20.51,0,41A3.91,3.91,0,0,1,25,73a1,1,0,0,0-.09.81,1.3,1.3,0,0,1,.16.31c1.22-.22,2.27.86,3.52.46a1.12,1.12,0,0,0,.11-1.19,6.34,6.34,0,0,1-.34-2.86q0-21.39,0-42.77c-.08-.62.38-1.19.19-1.83C27.14,26.1,25.61,24.81,24.22,26.18Z"/><path class="cls-39" d="M49.56,74.07C50.68,58,50.12,42,49.82,26c-1.12.17-1.07,1.38-1,2.41a125.79,125.79,0,0,1,.42,13.17q0,13-.11,26c0,1.56-.24,3.12-.32,4.67C48.82,72.8,48.68,73.52,49.56,74.07Z"/><path class="cls-40" d="M26.51,75.75l-2.27-.51c.41,1.51,1.83,1.63,3,2,3.42,1.17,7,1.21,10.57,1.24,4.79,0,9.62.18,14.24-1.48,0-.83-.43-.82-1-.58a41.18,41.18,0,0,1-9.77,1C36.23,77.64,31.26,77.66,26.51,75.75Z"/><path class="cls-41" d="M57,68.44c.9,2.14,0,4.4.53,6.74a8.93,8.93,0,0,0,.68-5.08c-.4-4,0-7.94-.2-11.91-.37-3.41,0-6.85-.44-10.25-.07-.63.57-1.53-.54-1.87L56.84,46Q56.9,57.22,57,68.44Z"/><path class="cls-42" d="M54.61,77.81l-.39-.33C48.4,80.39,42.14,80,35.93,79.86c-2.28,0-4.55-.4-6.82-.61a.71.71,0,0,0-.1.7,2.3,2.3,0,0,0,1.68.78c2.31.69,4.69.36,7,.42s4.81.08,7.22,0c1.39-.09,2.75-.45,4.15-.54a18.59,18.59,0,0,0,4-1.19C53.77,79.07,54.72,78.92,54.61,77.81Z"/><path class="cls-43" d="M55.62,48.71c-.21-.5.25-1.45-.9-1.31l0,12.51a.51.51,0,0,0,.38.24.49.49,0,0,0,.38-.25Z"/><path class="cls-44" d="M46.52,23.13c.44.19,1.26-.18,1.07.89a14.65,14.65,0,0,0,0,2.39,3.86,3.86,0,0,1,2.07-1.86c.74-.21,1.17-.75.88-1.5s-1-.77-1.7-.63A23.29,23.29,0,0,0,46.52,23.13Z"/><path class="cls-45" d="M55.1,59.91h-.4l-.13,5.16c-.41,1.84.13,3.74-.31,5.58l-.39,3c1.84-2.66,1.05-5.7,1.29-8.59A15.12,15.12,0,0,0,55.1,59.91Z"/><path class="cls-46" d="M51,76.43c.41.07.82.14,1,.58a3.38,3.38,0,0,0,2.2-1.51c-1.16-.47-2,.38-3,.51Z"/><path class="cls-47" d="M25,73.84,25,73.4c-.21-1.68.17-3.48-1-5-.64.88-.17,1.92-.43,2.86C23.65,72.35,23.29,73.61,25,73.84Z"/><path class="cls-48" d="M22.91,76.4c-.21.49-.68.91-.42,1.53a6.26,6.26,0,0,0,2.47.95.81.81,0,0,0,.6-.63Z"/><path class="cls-49" d="M54.26,70.65c.76-1.82.28-3.71.31-5.57A22.09,22.09,0,0,0,54.26,70.65Z"/><path class="cls-50" d="M25.56,78.25l-.45.36c.18.58.7.77,1.16,1a4.3,4.3,0,0,0,1.57.45,1.68,1.68,0,0,0,1.24-.36l0-.48Z"/><path class="cls-49" d="M55.1,59.91,55.16,65a16.93,16.93,0,0,0,.3-5.12Z"/><path class="cls-51" d="M37.18,24.49c-2.18.61-3,2.05-3,4.31q.06,21.25,0,42.51c0,1.85.4,3.4,2.13,4.35,1.49,0,3,0,4.47,0,2.6,0,3.68-1.11,3.69-3.88,0-7.59,0-15.18,0-22.77V29.18c0-3.77-.83-4.58-4.59-4.6C39,24.58,38.07,24.52,37.18,24.49Z"/><path class="cls-52" d="M45.25,30c0,.56.22,1,.8,1.11s.81-.28.9-.74c.16-.87-.56-.85-1.09-1S45.26,29.56,45.25,30Z"/><path class="cls-53" d="M14.75,62.93a10.5,10.5,0,0,1-4.43,0c-2.21-.14-3-1.73-3.53-3.53-.07-.21-.07-.5-.21-.61s-.39,0-.44.26a5.32,5.32,0,0,0,3.15,5.3c2.67.87,5.42.45,8.14.44V62.08Z"/><path class="cls-54" d="M17.31,69.21c.05-.86.09-1.72.14-2.58a13.43,13.43,0,0,0-4.8-.48c-2.93.06-5.64-.45-7.78-2.67.39,2.18,2.14,3,3.91,3.48a62.69,62.69,0,0,0,6.53,1.41A3.44,3.44,0,0,1,17.31,69.21Z"/><path class="cls-55" d="M17.39,37.45c.38-1.54-.08-2.18-1.74-1.71a10,10,0,0,1-5.35,0c-.47.7-1.32.34-1.94.74C11.45,36.28,14.31,37.78,17.39,37.45Z"/><path class="cls-56" d="M3.14,44.21c-.93.76-.06,2-.81,2.84-.06,3.08-.4,6.18.81,9.2Z"/><path class="cls-57" d="M16.59,40.15c-2,0-4-1.29-5.86.5,1.93,0,3.89-.08,5.6.93,1.5.89,1.08-.25,1.15-.94Z"/><path class="cls-58" d="M4.68,47.38a19.91,19.91,0,0,0,.7-7A11,11,0,0,0,4.68,47.38Z"/><path class="cls-59" d="M32.76,22.78c0,8.61,0,17.21-.11,25.82,0,.78.28,1.65-.38,2.33-.35,4.46.95,8.85.88,13.32V54.77c0-9.9,0-19.79,0-29.68C33.14,24.32,33.5,23.44,32.76,22.78Z"/><path class="cls-60" d="M32.19,48.78V42H31.9v6.8A1.43,1.43,0,0,1,32.19,48.78Z"/><path class="cls-61" d="M31.79,60.8l-.36,0v4.39h.36Z"/><path class="cls-62" d="M54.61,77.81c-1.42,1.49-3.57,1.33-5.22,2.31-.53,1.28.13,1.84,1.27,2.12a11.17,11.17,0,0,0,4-1,3,3,0,0,0,1.21-3.61C55.44,76.93,55.06,77.84,54.61,77.81Z"/><path class="cls-63" d="M37.73,80.63c-2.43-.24-4.91.17-7.31-.53a5.63,5.63,0,0,0-.89,2.31,36.33,36.33,0,0,0,8.14.31A1.61,1.61,0,0,0,37.73,80.63Z"/><path class="cls-64" d="M37.73,80.63l-.06,2.09a47.27,47.27,0,0,0,7.14,0c.84-.63,1.2-1.33.3-2.2Z"/><path class="cls-65" d="M45.11,80.57a4,4,0,0,1-.3,2.2,21.27,21.27,0,0,0,5.85-.53c-.82-.47-1-1.33-1.27-2.12C47.92,79.85,46.54,80.43,45.11,80.57Z"/><path class="cls-66" d="M26.34,79.23l-1.23-.62c-1,.12-1.45-1.61-2.62-.68.16,1.52-.21,3.38,2.16,3.58C26.82,81.46,27,81.16,26.34,79.23Z"/><path class="cls-26" d="M57,46.07c.78,2.84.13,5.74.36,8.61.09,1.15-.39,2.38.41,3.45.56-.65,0-1.53.43-2.2l.06-4.52A28.13,28.13,0,0,1,57.72,45Z"/><path class="cls-67" d="M58.18,55.93c-.71.62-.25,1.47-.43,2.2,0,3.28,0,6.57.06,9.85,0,.71-.29,1.5.35,2.12Q58.18,63,58.18,55.93Z"/><path class="cls-68" d="M29.53,82.41c1.57-.28.88-1.43.89-2.31-.45-.12-1,.07-1.34-.37l-1.26-.1c-.8,1-.74,1.93.41,2.65Z"/><path class="cls-69" d="M28.23,82.28a3.42,3.42,0,0,1-.41-2.65l-1.48-.4c.09,1.25.06,2.41-1.69,2.28A8.33,8.33,0,0,0,28.23,82.28Z"/><path class="cls-70" d="M29,58.16V41.94c-.58-1.28.55-2.86-.72-4-.4.34-.31.81-.31,1.24V61.84c0,.43-.09.9.31,1.24,1.14-.52.4-1.52.55-2.28A19.61,19.61,0,0,1,29,58.16Z"/><path class="cls-71" d="M28.6,26l-.82.82c.89,1.29.18,2.78.52,4.15.45,1.14-.2,2.54.87,3.53.63-2.38.31-4.81.4-7.21A1.19,1.19,0,0,0,28.6,26Z"/><path class="cls-72" d="M28.67,73.78c0,.28,0,.55,0,.83,1.12-.61,1-1.68.94-2.67-.11-1.8.26-3.64-.4-5.4-.81.66-.64,1.68-.91,2.54C28.36,70.65,27.82,72.28,28.67,73.78Z"/><path class="cls-73" d="M29.17,34.46c-.32-1.19.29-2.49-.41-3.63a11.7,11.7,0,0,0-.17,7.05c.36,1.33-.35,2.78.44,4.06C29.08,39.45,29.12,37,29.17,34.46Z"/><path class="cls-74" d="M28.75,68.84c.59-.69.17-1.56.42-2.3q-.06-4.19-.14-8.38c-.76,1.6-.09,3.32-.43,5A7.77,7.77,0,0,0,28.75,68.84Z"/><path class="cls-75" d="M24.08,68.41c.41,1.65-.5,3.55,1,5,1.71.18,1.24-1.09,1.24-1.94q0-16.3,0-32.61c0-3.64,0-7.29,0-10.94,0-1.28-.38-1.86-1.71-1.42-.76,4.25-.19,8.56-.63,12.82-.27,8.81-.42,17.63.09,26.44C24.1,66.63,24.07,67.52,24.08,68.41Z"/><path class="cls-76" d="M28.75,68.84l-.15-5.73a2.1,2.1,0,0,1-.32-1.48q0-11.13,0-22.26a2.12,2.12,0,0,1,.32-1.49q.07-3.52.17-7.05c0-1,0-1.94-.05-2.9,0-.63,0-1.24-.93-1.15q0,22.36,0,44.73c0,.75-.79,2,.86,2.27C28.7,72.13,28.73,70.48,28.75,68.84Z"/><path class="cls-77" d="M42.12,73.63l.37-.27c.37-.36.27-.83.27-1.27,0-14.9.05-29.81,0-44.72-1.59-1.77-3.44-1.16-5.29-.59a5.19,5.19,0,0,0-.54,3q0,20.41,0,40.83c0,.3,0,.6,0,.89.15,2.3.34,2.52,2.67,2.46C40.43,74,41.37,74.38,42.12,73.63Z"/><path class="cls-78" d="M42.12,73.63c-4.49.47-4.49.47-4.49-3.92V26.77c0-.86-.45-.69-1-.49-1.16.29-1.15,1.24-1.15,2.13q0,21.66,0,43.33c0,1.9.82,2.82,2.71,2.57C39.53,74.14,41,75,42.12,73.63Z"/><path class="cls-79" d="M42.5,27.23q0,23.07,0,46.13c.79-.31.49-1,.49-1.54q0-22,0-43.94a3,3,0,0,0-.12-.65A.21.21,0,0,0,42.5,27.23Z"/><path class="cls-80" d="M42.5,27.23h.36c0-.69-.23-1.17-1-1.21-1.75-.1-3.52-.51-5.23.26.38,0,.76.1,1,.49C39.27,26.73,41,26.28,42.5,27.23Z"/></g></g></svg>