<svg xmlns="http://www.w3.org/2000/svg" width="33.851" height="50.507" viewBox="0 0 33.851 50.507">
  <g id="owl" transform="translate(-84.426)">
    <g id="Group_7" data-name="Group 7" transform="translate(108.042 12.176)">
      <g id="Group_6" data-name="Group 6" transform="translate(0)">
        <path id="Path_100" data-name="Path 100" d="M327.313,123.428a3.493,3.493,0,1,0,3.493,3.493A3.5,3.5,0,0,0,327.313,123.428Zm0,5.373a1.881,1.881,0,1,1,1.881-1.881A1.883,1.883,0,0,1,327.313,128.8Z" transform="translate(-323.821 -123.428)" fill="#292929"/>
      </g>
    </g>
    <g id="Group_9" data-name="Group 9" transform="translate(92.404 12.176)">
      <g id="Group_8" data-name="Group 8" transform="translate(0)">
        <path id="Path_101" data-name="Path 101" d="M168.8,123.428a3.493,3.493,0,1,0,3.493,3.493A3.5,3.5,0,0,0,168.8,123.428Zm0,5.373a1.881,1.881,0,1,1,1.881-1.881A1.883,1.883,0,0,1,168.8,128.8Z" transform="translate(-165.303 -123.428)" fill="#292929"/>
      </g>
    </g>
    <g id="Group_11" data-name="Group 11" transform="translate(84.426)">
      <g id="Group_10" data-name="Group 10" transform="translate(0)">
        <path id="Path_102" data-name="Path 102" d="M117.471,0a5.11,5.11,0,0,0-4.753,3.224h-18A5.11,5.11,0,0,0,89.96,0a.806.806,0,0,0-.806.806V18.7a.806.806,0,1,0,1.612,0V8.085a14.147,14.147,0,0,1,12.209,8.552.806.806,0,0,0,1.481,0,14.147,14.147,0,0,1,12.209-8.552V22.191a26.736,26.736,0,0,1-25.9,26.692V46.39A17.6,17.6,0,0,0,102.8,29.713a9.188,9.188,0,1,0-18.376,0V46.477a.806.806,0,0,0,.806.806,17.565,17.565,0,0,0,3.922-.442V49.7a.806.806,0,0,0,.806.806,28.348,28.348,0,0,0,28.316-28.316V.806A.806.806,0,0,0,117.471,0Zm-.806,6.47A15.756,15.756,0,0,0,103.715,14.5,15.756,15.756,0,0,0,90.766,6.47V1.705a3.494,3.494,0,0,1,2.583,2.526.806.806,0,0,0,.78.6H113.3a.806.806,0,0,0,.78-.6,3.494,3.494,0,0,1,2.583-2.526ZM89.96,44.879a.8.8,0,0,0-.577.244,15.879,15.879,0,0,1-3.345.528V29.713a7.576,7.576,0,0,1,15.152,0A15.986,15.986,0,0,1,90.138,44.9.812.812,0,0,0,89.96,44.879Z" transform="translate(-84.426)" fill="#292929"/>
      </g>
    </g>
    <g id="Group_13" data-name="Group 13" transform="translate(87.65 28.907)">
      <g id="Group_12" data-name="Group 12" transform="translate(0)">
        <path id="Path_103" data-name="Path 103" d="M121.137,293.038a.806.806,0,0,0-.806.806.806.806,0,1,1-1.612,0,.806.806,0,0,0-1.612,0,2.418,2.418,0,0,0,4.836,0A.806.806,0,0,0,121.137,293.038Z" transform="translate(-117.107 -293.038)" fill="#292929"/>
      </g>
    </g>
    <g id="Group_15" data-name="Group 15" transform="translate(89.262 33.743)">
      <g id="Group_14" data-name="Group 14" transform="translate(0)">
        <path id="Path_104" data-name="Path 104" d="M137.478,342.06a.806.806,0,0,0-.806.806.806.806,0,1,1-1.612,0,.806.806,0,0,0-1.612,0,2.418,2.418,0,1,0,4.836,0A.806.806,0,0,0,137.478,342.06Z" transform="translate(-133.448 -342.06)" fill="#292929"/>
      </g>
    </g>
  </g>
</svg>
